HIERARCHY
ROOT ui
{
	 OFFSET 0 0 0
	 CHANNELS 3 XPosition YPosition Z Position
	 EndSite
	 {
	 OFFSET 0 -1 0
	 }
}
ROOT li
{
	 OFFSET 0 0 0
	 CHANNELS 3 XPosition YPosition Z Position
	 EndSite
	 {
	 OFFSET 0 -1 0
	 }
}
ROOT ul
{
	 OFFSET 0 0 0
	 CHANNELS 3 XPosition YPosition Z Position
	 EndSite
	 {
	 OFFSET 0 -1 0
	 }
}
ROOT ll
{
	 OFFSET 0 0 0
	 CHANNELS 3 XPosition YPosition Z Position
	 EndSite
	 {
	 OFFSET 0 -1 0
	 }
}
ROOT tt
{
	 OFFSET 0 0 0
	 CHANNELS 3 XPosition YPosition Z Position
	 EndSite
	 {
	 OFFSET 0 -1 0
	 }
}
ROOT tb
{
	 OFFSET 0 0 0
	 CHANNELS 3 XPosition YPosition Z Position
	 EndSite
	 {
	 OFFSET 0 -1 0
	 }
}
ROOT td
{
	 OFFSET 0 0 0
	 CHANNELS 3 XPosition YPosition Z Position
	 EndSite
	 {
	 OFFSET 0 -1 0
	 }
}
ROOT v
{
	 OFFSET 0 0 0
	 CHANNELS 3 XPosition YPosition Z Position
	 EndSite
	 {
	 OFFSET 0 -1 0
	 }
}
ROOT bn
{
	 OFFSET 0 0 0
	 CHANNELS 3 XPosition YPosition Z Position
	 EndSite
	 {
	 OFFSET 0 -1 0
	 }
}
MOTION
Frames: 10
Frame Time: 0.002
0.00634450101852417	-4.2807799577713015E-4	0		0.5087528991699218	-2.56674951171875	0		-0.9447418823242187	0.34959283447265627	0		-0.762039794921875	-2.893060546875	0		2.142837646484375	-1.13845849609375	0		3.586041015625	-0.5265891723632813	0		4.8707255859375	-0.09439136505126954	0		6.04198095703125	0.5247681884765625	0		-0.09248157501220704	5.958615234375	0		
0.0017400540113449096	-0.004152844905853272	0		0.46414913940429686	-2.567142333984375	0		-0.9743840942382812	0.3410886535644531	0		-0.7555728149414063	-2.88487060546875	0		2.156406494140625	-1.1203575439453124	0		3.592548828125	-0.5164434814453125	0		4.88506884765625	-0.10432545471191407	0		6.0504150390625	0.5248724365234375	0		-0.09200044250488282	5.95784912109375	0		
0.008286096572875977	0.0030169219970703127	0		0.5256253662109375	-2.565441162109375	0		-0.9698598022460938	0.34528518676757813	0		-0.749047119140625	-2.876693359375	0		2.167126953125	-1.0912437744140624	0		3.6240634765625	-0.5125205078125	0		4.9164189453125	-0.1204146957397461	0		6.04090771484375	0.5251170043945312	0		-0.077361328125	5.9689521484375	0		
0.004807754993438721	2.5707000494003295E-4	0		0.5062839965820313	-2.5490712890625	0		-0.9363447265625	0.341221923828125	0		-0.7194523315429687	-2.867725341796875	0		2.197941162109375	-1.0583125	0		3.63663037109375	-0.5094497680664063	0		4.93188818359375	-0.12938104248046875	0		6.04945947265625	0.5251989135742188	0		-0.058801239013671874	5.96400732421875	0		
0.00441440486907959	4.55375999212265E-4	0		0.5038523254394531	-2.5508603515625	0		-0.9367351684570312	0.34142816162109374	0		-0.7657667236328125	-2.85513232421875	0		2.19475048828125	-1.0331082763671875	0		3.663248779296875	-0.5075105590820312	0		4.94742578125	-0.13735934448242187	0		6.04007080078125	0.52542236328125	0		-0.05815277862548828	5.96319775390625	0		
-0.003979197025299072	-0.0062969069480896	0		0.5055160827636719	-2.548701171875	0		-0.9471347045898437	0.33369964599609375	0		-0.7271234130859375	-2.855277099609375	0		2.205704345703125	-0.9980387573242188	0		3.659130615234375	-0.4813243408203125	0		4.97489404296875	-0.16045156860351562	0		6.043671875	0.51752490234375	0		-0.09350228881835937	5.9566748046875	0		
0.003802148103713989	7.944179773330688E-4	0		0.5072402038574219	-2.546561767578125	0		-0.9713840942382812	0.33706781005859376	0		-0.790271728515625	-2.837580322265625	0		2.2107255859375	-0.9619361572265624	0		3.667824462890625	-0.48426284790039065	0		4.9795390625	-0.16936378479003905	0		6.03538916015625	0.5167161865234375	0		-0.09176161193847657	5.95481787109375	0		
0.006604808807373047	0.003906313896179199	0		0.5150904541015625	-2.536494873046875	0		-0.93259814453125	0.3378790588378906	0		-0.7434496459960938	-2.830837890625	0		2.229853759765625	-0.9199712524414062	0		3.696776611328125	-0.46338861083984373	0		4.99437451171875	-0.16237632751464845	0		6.0481005859375	0.50871630859375	0		-0.07487308502197265	5.96481103515625	0		
0.006434399127960205	0.00402044677734375	0		0.514912353515625	-2.53638232421875	0		-0.9767320556640625	0.34236898803710936	0		-0.7594500122070312	-2.809586669921875	0		2.229045166015625	-0.8768569946289062	0		3.679715576171875	-0.4501420288085938	0		5.006076171875	-0.1773785858154297	0		6.0309326171875	0.5089562377929687	0		-0.07699986267089844	5.9679423828125	0		
0.003286910057067871	0.0011348350048065185	0		0.4948974304199219	-2.523125	0		-0.9529563598632812	0.3302561645507813	0		-0.7664742431640625	-2.797437744140625	0		2.252226318359375	-0.8409677124023438	0		3.692694091796875	-0.4381692199707031	0		5.0069619140625	-0.1763055419921875	0		6.0347431640625	0.5010026550292969	0		-0.058173362731933596	5.96087060546875	0		
